<?xml version="1.0" encoding="UTF-8" standalone="no"?>
<!-- Created with Inkscape (http://www.inkscape.org/) -->

<svg
   xmlns:dc="http://purl.org/dc/elements/1.1/"
   xmlns:cc="http://creativecommons.org/ns#"
   xmlns:rdf="http://www.w3.org/1999/02/22-rdf-syntax-ns#"
   xmlns:svg="http://www.w3.org/2000/svg"
   xmlns="http://www.w3.org/2000/svg"
   xmlns:sodipodi="http://sodipodi.sourceforge.net/DTD/sodipodi-0.dtd"
   xmlns:inkscape="http://www.inkscape.org/namespaces/inkscape"
   id="svg2"
   version="1.1"
   inkscape:version="0.48.3.1 r9886"
   width="320"
   height="70"
   xml:space="preserve"
   sodipodi:docname="servus.svg"><metadata
     id="metadata8"><rdf:RDF><cc:Work
         rdf:about=""><dc:format>image/svg+xml</dc:format><dc:type
           rdf:resource="http://purl.org/dc/dcmitype/StillImage" /></cc:Work></rdf:RDF></metadata><defs
     id="defs6"><clipPath
       clipPathUnits="userSpaceOnUse"
       id="clipPath20"><path
         d="m 0,0 2000,0 0,2000 L 0,2000 0,0 z"
         id="path22"
         inkscape:connector-curvature="0" /></clipPath></defs><sodipodi:namedview
     pagecolor="#ffffff"
     bordercolor="#666666"
     borderopacity="1"
     objecttolerance="10"
     gridtolerance="10"
     guidetolerance="10"
     inkscape:pageopacity="0"
     inkscape:pageshadow="2"
     inkscape:window-width="640"
     inkscape:window-height="480"
     id="namedview4"
     showgrid="false"
     inkscape:zoom="1.0037688"
     inkscape:cx="197.55379"
     inkscape:cy="28.535713"
     inkscape:current-layer="svg2"
     fit-margin-top="0"
     fit-margin-left="0"
     fit-margin-right="0"
     fit-margin-bottom="0" /><g
     id="g10"
     inkscape:groupmode="layer"
     inkscape:label="servus_logo"><g
       id="g3098"
       transform="matrix(4.2926962,0,0,-4.2926962,908.24843,1975.7271)"><path
         inkscape:connector-curvature="0"
         d="m -202.22658,449.11035 2.47876,0 0,7.6094 -2.47876,0 0,-7.6094 z m -0.8726,4.21584 -0.004,1.23181 -2.81904,0 c 0.66973,2.07303 2.61617,3.56937 4.911,3.56937 2.297,0 4.24127,-1.49634 4.91317,-3.56937 l -2.77468,0 0,-1.19394 3.37949,-0.0466 c 0.16446,0.20937 0.41818,0.34244 0.70327,0.34244 0.49662,0 0.89803,-0.40356 0.89803,-0.90019 0,-0.49445 -0.40141,-0.89801 -0.89803,-0.89801 -0.34839,0 -0.65079,0.19853 -0.80065,0.49013 l -3.30321,0 0.0211,-1.17285 2.70922,0 c -0.72708,-1.96916 -2.62213,-3.37679 -4.84771,-3.37679 -2.22288,0 -4.11847,1.40763 -4.84554,3.37679 l 2.75358,0 0.0465,1.17285 -3.34108,0 c -0.14769,-0.29156 -0.4501,-0.49009 -0.79849,-0.49009 -0.49661,0 -0.90018,0.40356 -0.90018,0.89801 0,0.49663 0.40357,0.90019 0.90018,0.90019 0.2851,0 0.53882,-0.13307 0.70327,-0.34244 l 3.3941,0.009 z"
         style="fill:#000000;fill-opacity:1;fill-rule:evenodd;stroke:none"
         id="path820-6" /><path
         inkscape:connector-curvature="0"
         d="m -186.47709,452.32051 0,0.69084 c 0,0.3446 -0.22775,0.57288 -0.57451,0.57288 l -2.58426,0 c -0.17149,0 -0.2878,0.11578 -0.2878,0.28727 0,0.17312 0.11631,0.28726 0.2878,0.28726 l 2.58426,0 c 0.34676,0 0.57451,0.23046 0.57451,0.57506 l 0,0.22992 c 0,0.3446 -0.22775,0.57505 -0.57451,0.57505 l -2.41114,0 c -0.46092,0 -0.69083,-0.23045 -0.69083,-0.57505 l 0,-0.22992 c 0,-0.3446 -0.2283,-0.57506 -0.5729,-0.57506 -0.34677,0 -0.57452,-0.23046 -0.57452,-0.57453 l 0,-0.6892 c 0,-0.3446 0.22775,-0.57452 0.57452,-0.57452 l 2.58425,0 c 0.17366,0 0.2878,-0.11414 0.2878,-0.28564 0,-0.1731 -0.11414,-0.28942 -0.2878,-0.28942 l -2.58425,0 c -0.34677,0 -0.57452,-0.22829 -0.57452,-0.57451 l 0,-0.2283 c 0,-0.3446 0.22775,-0.57505 0.57452,-0.57505 l 2.41114,0 c 0.46091,0 0.69083,0.23045 0.69083,0.57505 l 0,0.2283 c 0,0.34622 0.22829,0.57451 0.5729,0.57451 0.34676,0 0.57451,0.23046 0.57451,0.57506"
         style="fill:#000000;fill-opacity:1;fill-rule:nonzero;stroke:none"
         id="path822-2" /><path
         inkscape:connector-curvature="0"
         d="m -181.58286,453.8715 c 0,-0.17149 -0.11577,-0.28727 -0.28726,-0.28727 l -1.50446,0 c -0.17311,0 -0.28726,0.11578 -0.28726,0.28727 0,0.17312 0.11415,0.28726 0.28726,0.28726 l 1.50446,0 c 0.17149,0 0.28726,-0.11414 0.28726,-0.28726 m 1.3676,-0.97647 0,0.6892 c 0,0.34407 -0.23046,0.57453 -0.57506,0.57453 -0.34407,0 -0.57452,0.23046 -0.57452,0.57506 l 0,0.22992 c 0,0.3446 -0.23046,0.57505 -0.68921,0.57505 l -1.14958,0 c -0.45821,0 -0.68866,-0.23045 -0.68866,-0.57505 l 0,-0.22992 c 0,-0.3446 -0.23046,-0.57506 -0.57506,-0.57506 -0.34406,0 -0.57452,-0.23046 -0.57452,-0.57453 l 0,-1.26372 c 0,-0.3446 0.23046,-0.57506 0.57452,-0.57506 0.3446,0 0.57506,-0.22829 0.57506,-0.57234 l 0,-0.23047 c 0,-0.3446 0.23045,-0.57505 0.68866,-0.57505 l 2.06924,0 c 0.34407,0 0.57452,0.23045 0.57452,0.57505 l 0,0.23047 c 0,0.34405 -0.23045,0.57234 -0.57452,0.57234 l -2.24019,0 c -0.17311,0 -0.28726,0.11632 -0.28726,0.28942 0,0.1715 0.11415,0.28564 0.28726,0.28564 l 2.58426,0 c 0.3446,0 0.57506,0.22992 0.57506,0.57452"
         style="fill:#000000;fill-opacity:1;fill-rule:evenodd;stroke:none"
         id="path824-3" /><path
         inkscape:connector-curvature="0"
         d="m -174.98725,454.7441 0,0.23045 c 0,0.3446 -0.23046,0.57452 -0.57506,0.57452 l -1.14742,0 c -0.46037,0 -0.69083,-0.22992 -0.69083,-0.57452 l 0,-0.23045 c 0,-0.3446 -0.22829,-0.57235 -0.57289,-0.57235 -0.34623,0 -0.57452,-0.23046 -0.57452,-0.57506 l 0,-2.64377 c 0,-0.34406 0.22829,-0.57236 0.57452,-0.57236 l 0.22829,0 c 0.3446,0 0.57506,0.2283 0.57506,0.57236 l 0,2.64377 c 0,0.3446 0.22992,0.57506 0.57452,0.57506 l 1.03327,0 c 0.3446,0 0.57506,0.22775 0.57506,0.57235"
         style="fill:#000000;fill-opacity:1;fill-rule:nonzero;stroke:none"
         id="path826-3" /><path
         inkscape:connector-curvature="0"
         d="m -169.07057,452.33296 0,2.64159 c 0,0.3446 -0.23046,0.57452 -0.57452,0.57452 l -0.2283,0 c -0.34676,0 -0.57505,-0.22992 -0.57505,-0.57452 l 0,-2.64159 c 0,-0.34461 -0.22992,-0.57452 -0.57452,-0.57452 l -0.46092,0 c -0.34406,0 -0.57452,0.22991 -0.57452,0.57452 l 0,2.64159 c 0,0.3446 -0.22829,0.57452 -0.57289,0.57452 l -0.23046,0 c -0.34406,0 -0.57452,-0.22992 -0.57452,-0.57452 l 0,-2.64159 c 0,-0.34461 0.23046,-0.57452 0.57452,-0.57452 0.3446,0 0.57506,-0.2878 0.57506,-0.57506 l 0,-0.23046 c 0,-0.34406 0.22829,-0.57236 0.57452,-0.57236 l 0.91966,0 c 0.34407,0 0.57236,0.2283 0.57236,0.57236 l 0,0.23046 c 0,0.28726 0.23045,0.57506 0.57506,0.57506 0.34406,0 0.57452,0.22991 0.57452,0.57452"
         style="fill:#000000;fill-opacity:1;fill-rule:nonzero;stroke:none"
         id="path828-6" /><path
         inkscape:connector-curvature="0"
         d="m -163.03705,451.18338 0,3.79117 c 0,0.3446 -0.23045,0.57452 -0.57505,0.57452 l -0.23046,0 c -0.34406,0 -0.57236,-0.22992 -0.57236,-0.57452 l 0,-2.64159 c 0,-0.34461 -0.23045,-0.57452 -0.57722,-0.57452 l -0.45821,0 c -0.3446,0 -0.57506,0.22991 -0.57506,0.57452 l 0,2.64159 c 0,0.3446 -0.22829,0.57452 -0.57452,0.57452 l -0.22829,0 c -0.3446,0 -0.57506,-0.22992 -0.57506,-0.57452 l 0,-2.64159 c 0,-0.34461 0.23046,-0.57452 0.57506,-0.57452 0.3446,0 0.57452,-0.2878 0.57452,-0.57506 l 0,-0.23046 c 0,-0.34406 0.22829,-0.57236 0.57289,-0.57236 l 1.83825,0 c 0.40194,0 0.80551,0.40142 0.80551,0.80282"
         style="fill:#000000;fill-opacity:1;fill-rule:nonzero;stroke:none"
         id="path830-5" /><path
         inkscape:connector-curvature="0"
         d="m -156.20125,452.32051 0,0.69084 c 0,0.3446 -0.22992,0.57288 -0.57452,0.57288 l -2.58425,0 c -0.17365,0 -0.2878,0.11578 -0.2878,0.28727 0,0.17312 0.11415,0.28726 0.2878,0.28726 l 2.58425,0 c 0.3446,0 0.57452,0.23046 0.57452,0.57506 l 0,0.22992 c 0,0.3446 -0.22992,0.57505 -0.57452,0.57505 l -2.4133,0 c -0.45875,0 -0.68921,-0.23045 -0.68921,-0.57505 l 0,-0.22992 c 0,-0.3446 -0.22991,-0.57506 -0.57451,-0.57506 -0.34461,0 -0.57506,-0.23046 -0.57506,-0.57453 l 0,-0.6892 c 0,-0.3446 0.23045,-0.57452 0.57506,-0.57452 l 2.58642,0 c 0.17148,0 0.28563,-0.11414 0.28563,-0.28564 0,-0.1731 -0.11415,-0.28942 -0.28563,-0.28942 l -2.58642,0 c -0.34461,0 -0.57506,-0.22829 -0.57506,-0.57451 l 0,-0.2283 c 0,-0.3446 0.23045,-0.57505 0.57506,-0.57505 l 2.4133,0 c 0.45875,0 0.68866,0.23045 0.68866,0.57505 l 0,0.2283 c 0,0.34622 0.23046,0.57451 0.57506,0.57451 0.3446,0 0.57452,0.23046 0.57452,0.57506"
         style="fill:#000000;fill-opacity:1;fill-rule:nonzero;stroke:none"
         id="path832-1" /><path
         inkscape:connector-curvature="0"
         d="m -152.6995,450.95292 0,0.23046 c 0,0.35488 -0.24073,0.57506 -0.57289,0.57506 l -0.34623,0 c -0.34244,0 -0.5729,-0.23045 -0.5729,-0.57506 l 0,-0.23046 c 0,-0.34406 0.23046,-0.57236 0.5729,-0.57236 l 0.34623,0 c 0.3446,0 0.57289,0.2283 0.57289,0.57236"
         style="fill:#000000;fill-opacity:1;fill-rule:nonzero;stroke:none"
         id="path834-1" /><path
         inkscape:connector-curvature="0"
         d="m -147.58563,452.03271 c 0,-0.17094 -0.11415,-0.28508 -0.28725,-0.28508 l -1.84907,0 c -0.17312,0 -0.28726,0.11414 -0.28726,0.28508 0,0.17366 0.11414,0.2878 0.28726,0.2878 l 1.84907,0 c 0.1731,0 0.28725,-0.11414 0.28725,-0.2878 m 1.03543,-1.09007 0,2.64159 c 0,0.34407 -0.23045,0.57453 -0.57452,0.57453 -0.3446,0 -0.57506,0.23046 -0.57506,0.57506 l 0,0.22992 c 0,0.3446 -0.23046,0.57505 -0.68866,0.57505 l -2.41331,0 c -0.3446,0 -0.57506,-0.23045 -0.57506,-0.57505 l 0,-0.22992 c 0,-0.3446 0.23046,-0.57506 0.57506,-0.57506 l 2.58425,0 c 0.17312,0 0.28726,-0.11414 0.28726,-0.28726 0,-0.17149 -0.11414,-0.28727 -0.28726,-0.28727 l -2.58425,0 c -0.3446,0 -0.57506,-0.22828 -0.57506,-0.57505 l 0,-0.68867 c 0,-0.3446 0.23046,-0.57288 0.57506,-0.57288 0.34461,0 0.57452,-0.23047 0.57452,-0.57452 l 0,-0.23047 c 0,-0.3446 0.2283,-0.57505 0.68921,-0.57505 l 2.4133,0 c 0.34407,0 0.57452,0.23045 0.57452,0.57505"
         style="fill:#000000;fill-opacity:1;fill-rule:evenodd;stroke:none"
         id="path836-5" /><path
         inkscape:connector-curvature="0"
         d="m -141.89671,454.723 0,0.23046 c 0,0.34244 -0.23045,0.57235 -0.57505,0.57235 l -0.46037,0 c -0.28564,0 -0.45875,0.17366 -0.45875,0.46091 l 0,1.14742 c 0,0.34461 -0.23046,0.57505 -0.57452,0.57505 l -0.23046,0 c -0.34461,0 -0.5729,-0.23044 -0.5729,-0.57505 l 0,-4.80767 c 0,-0.34028 0.22829,-0.56803 0.5729,-0.56803 0.40357,0 0.57452,-0.2878 0.57452,-0.57506 l 0,-0.23046 c 0,-0.34406 0.23046,-0.57236 0.57506,-0.57236 l 0.46037,0 c 0.3446,0 0.57289,0.2283 0.57289,0.57236 l 0,0.23046 c 0,0.34461 -0.22829,0.57506 -0.57289,0.57506 l -0.22992,0 c -0.2878,0 -0.57505,0.17095 -0.57505,0.45387 l 0,1.47959 c 0,0.28509 0.17311,0.45658 0.45875,0.45658 l 0.46037,0 c 0.3446,0 0.57505,0.22775 0.57505,0.57452"
         style="fill:#000000;fill-opacity:1;fill-rule:nonzero;stroke:none"
         id="path838-3" /><path
         inkscape:connector-curvature="0"
         d="m -190.84711,446.43522 0.12497,0.5664 0.28077,0.2575 0.22396,-0.8239 0.46524,0 -0.3235,1.1539 0.69299,0.68435 -0.50257,0 -0.69732,-0.70978 -0.0152,0 0.31701,1.4244 -0.43927,0 -0.56424,-2.55287 0.43711,0 z"
         style="fill:#000000;fill-opacity:1;fill-rule:nonzero;stroke:none"
         id="path840-8" /><path
         inkscape:connector-curvature="0"
         d="m -187.34103,448.27347 -0.29591,-1.32487 c -0.0909,-0.0844 -0.26184,-0.19421 -0.45226,-0.19421 -0.14769,0 -0.20936,0.0778 -0.15418,0.32513 l 0.26616,1.19395 -0.43927,0 -0.27915,-1.25724 c -0.0822,-0.37382 0.04,-0.6151 0.4079,-0.6151 0.21531,0 0.43116,0.11848 0.61672,0.23262 l -0.0422,-0.19853 0.40194,0 0.40736,1.83825 -0.43711,0 z"
         style="fill:#000000;fill-opacity:1;fill-rule:evenodd;stroke:none"
         id="path842-3" /><path
         inkscape:connector-curvature="0"
         d="m -185.72675,446.43522 0.29375,1.32701 c 0.0931,0.0844 0.26238,0.19421 0.45442,0.19421 0.14769,0 0.2072,-0.0779 0.15418,-0.32512 l -0.26616,-1.1961 0.43765,0 0.27861,1.25939 c 0.0844,0.37382 -0.04,0.6151 -0.4079,0.6151 -0.21531,0 -0.429,-0.12064 -0.61672,-0.23263 l 0.0444,0.19639 -0.40357,0 -0.40789,-1.83825 0.43927,0 z"
         style="fill:#000000;fill-opacity:1;fill-rule:evenodd;stroke:none"
         id="path844-4" /><path
         inkscape:connector-curvature="0"
         d="m -181.9821,448.03055 c -0.11847,0.18611 -0.34244,0.27916 -0.58534,0.27916 -0.31917,0 -0.65079,-0.19043 -0.72707,-0.53503 -0.1412,-0.63782 0.80335,-0.52584 0.73356,-0.84069 -0.0276,-0.1228 -0.15201,-0.20719 -0.30889,-0.20719 -0.18772,0 -0.29754,0.12226 -0.36949,0.26399 l -0.34028,-0.21963 c 0.10766,-0.23911 0.31918,-0.37003 0.61293,-0.37003 0.3868,0 0.71409,0.16933 0.79849,0.5518 0.14822,0.66973 -0.80065,0.53665 -0.73087,0.8515 0.0254,0.10982 0.11848,0.1796 0.28726,0.1796 0.13741,0 0.23262,-0.0995 0.30025,-0.1942 l 0.32945,0.24072 z"
         style="fill:#000000;fill-opacity:1;fill-rule:nonzero;stroke:none"
         id="path846-2" /><path
         inkscape:connector-curvature="0"
         d="m -181.02078,448.27347 -0.0779,-0.35272 0.25588,0 -0.24344,-1.09495 c -0.059,-0.264 0.0319,-0.42467 0.35759,-0.42467 0.1201,0 0.22991,0.013 0.35272,0.0276 l 0.0801,0.36138 c -0.0676,-0.0146 -0.1412,-0.0357 -0.20882,-0.0357 -0.11036,0 -0.15256,0.027 -0.13146,0.12659 l 0.23046,1.03976 0.36137,0 0.0785,0.35272 -0.36137,0 0.13524,0.60859 -0.43981,0 -0.13308,-0.60859 -0.25589,0 z"
         style="fill:#000000;fill-opacity:1;fill-rule:nonzero;stroke:none"
         id="path848-5" /><path
         inkscape:connector-curvature="0"
         d="m -177.06677,447.16391 c 0.0357,0.16716 0.13741,0.23696 0.27914,0.33648 0.0931,-0.20502 0.21748,-0.38895 0.38843,-0.54746 -0.11199,-0.0931 -0.24723,-0.14174 -0.37166,-0.14174 -0.19637,0 -0.33811,0.165 -0.29591,0.35272 m 1.32485,0.5518 c -0.099,-0.16932 -0.21098,-0.33162 -0.34839,-0.47984 -0.12713,0.14172 -0.23911,0.317 -0.33594,0.50526 0.2786,0.1861 0.57668,0.38247 0.65079,0.7141 0.0698,0.32134 -0.14606,0.56856 -0.48201,0.56856 -0.37598,0 -0.69948,-0.23262 -0.77955,-0.59399 -0.0552,-0.25156 -0.0173,-0.41006 0.0801,-0.61455 -0.28509,-0.16717 -0.50473,-0.35758 -0.57452,-0.67243 -0.11198,-0.50907 0.17528,-0.74169 0.65296,-0.74169 0.25156,0 0.49229,0.0866 0.70544,0.26833 0.23911,-0.23208 0.33432,-0.26833 0.57722,-0.26833 l 0.0909,0.41006 c -0.12496,0.002 -0.23478,0.0742 -0.32134,0.17312 0.17961,0.19475 0.32134,0.41006 0.4501,0.62591 l -0.36571,0.10549 z m -0.87692,0.74601 c 0.0379,0.17311 0.17528,0.27265 0.27482,0.27265 0.14552,0 0.19204,-0.12064 0.16067,-0.26237 -0.0363,-0.16662 -0.21964,-0.31485 -0.3933,-0.42467 -0.0546,0.12497 -0.0757,0.26616 -0.0422,0.41439"
         style="fill:#000000;fill-opacity:1;fill-rule:evenodd;stroke:none"
         id="path850-8" /><path
         inkscape:connector-curvature="0"
         d="m -172.34187,446.43522 0.12497,0.5664 0.28076,0.2575 0.22397,-0.8239 0.4674,0 -0.32566,1.1539 0.69299,0.68435 -0.50041,0 -0.69948,-0.70978 -0.013,0 0.31485,1.4244 -0.43711,0 -0.56641,-2.55287 0.43711,0 z"
         style="fill:#000000;fill-opacity:1;fill-rule:nonzero;stroke:none"
         id="path852-7" /><path
         inkscape:connector-curvature="0"
         d="m -168.83579,448.27347 -0.29375,-1.32487 c -0.0931,-0.0844 -0.26183,-0.19421 -0.45226,-0.19421 -0.14985,0 -0.20936,0.0778 -0.15418,0.32513 l 0.264,1.19395 -0.43927,0 -0.27915,-1.25724 c -0.0822,-0.37382 0.0422,-0.6151 0.41006,-0.6151 0.21315,0 0.429,0.11848 0.61672,0.23262 l -0.0444,-0.19853 0.40357,0 0.40573,1.83825 -0.43711,0 z"
         style="fill:#000000;fill-opacity:1;fill-rule:evenodd;stroke:none"
         id="path854-1" /><path
         inkscape:connector-curvature="0"
         d="m -167.17499,446.43522 0.56641,2.55287 -0.43928,0 -0.56424,-2.55287 0.43711,0 z"
         style="fill:#000000;fill-opacity:1;fill-rule:nonzero;stroke:none"
         id="path856-4" /><path
         inkscape:connector-curvature="0"
         d="m -165.75925,448.27347 -0.0801,-0.35272 0.25589,0 -0.24344,-1.09495 c -0.059,-0.264 0.0341,-0.42467 0.3592,-0.42467 0.11848,0 0.2283,0.013 0.35326,0.0276 l 0.0779,0.36138 c -0.0655,-0.0146 -0.14119,-0.0357 -0.20881,-0.0357 -0.1082,0 -0.15256,0.027 -0.13146,0.12659 l 0.23046,1.03976 0.36137,0 0.0785,0.35272 -0.36137,0 0.13524,0.60859 -0.43765,0 -0.13525,-0.60859 -0.25371,0 z"
         style="fill:#000000;fill-opacity:1;fill-rule:nonzero;stroke:none"
         id="path858-1" /><path
         inkscape:connector-curvature="0"
         d="m -162.63348,448.27347 -0.29375,-1.32487 c -0.0931,-0.0844 -0.26237,-0.19421 -0.45225,-0.19421 -0.14823,0 -0.20936,0.0778 -0.15418,0.32513 l 0.26399,1.19395 -0.43765,0 -0.2786,-1.25724 c -0.0828,-0.37382 0.04,-0.6151 0.4079,-0.6151 0.21531,0 0.43116,0.11848 0.61671,0.23262 l -0.0444,-0.19853 0.40357,0 0.4079,1.83825 -0.43928,0 z"
         style="fill:#000000;fill-opacity:1;fill-rule:evenodd;stroke:none"
         id="path860-8" /><path
         inkscape:connector-curvature="0"
         d="m -161.04679,446.43522 0.24939,1.11765 c 0.0108,0.0466 0.25589,0.29592 0.47552,0.29592 0.0319,0 0.0573,0 0.0785,-0.002 l 0.10117,0.46308 c -0.264,-0.006 -0.43928,-0.13146 -0.59346,-0.35109 l -0.009,0 0.0719,0.31485 -0.40357,0 -0.40789,-1.83825 0.43711,0 z"
         style="fill:#000000;fill-opacity:1;fill-rule:nonzero;stroke:none"
         id="path862-8" /><path
         inkscape:connector-curvature="0"
         d="m -156.84772,448.61373 0.0909,0.41006 -0.43927,0 -0.0893,-0.41006 0.43765,0 z m -0.0741,-0.34026 -0.43927,0 -0.4079,-1.83825 0.43927,0 0.4079,1.83825 z"
         style="fill:#000000;fill-opacity:1;fill-rule:evenodd;stroke:none"
         id="path864-3" /><path
         inkscape:connector-curvature="0"
         d="m -155.7003,446.43522 0.29158,1.32269 c 0.12497,0.0952 0.30025,0.19853 0.41223,0.19853 0.15851,-0.008 0.2007,-0.0887 0.16663,-0.23641 l -0.28294,-1.28481 0.43765,0 0.29159,1.32269 c 0.12442,0.0952 0.2997,0.19853 0.41168,0.19853 0.15851,-0.008 0.20125,-0.0887 0.16717,-0.23641 l -0.2851,-1.28481 0.43928,0 0.29374,1.32269 c 0.0952,0.43981 -0.13957,0.5518 -0.33161,0.5518 -0.30241,0 -0.50528,-0.11632 -0.69083,-0.26833 -0.0427,0.17528 -0.20287,0.26833 -0.39329,0.26833 -0.25156,0 -0.40358,-0.0806 -0.60427,-0.23263 l 0.0444,0.19639 -0.39925,0 -0.4079,-1.83825 0.43928,0 z"
         style="fill:#000000;fill-opacity:1;fill-rule:evenodd;stroke:none"
         id="path866-9" /><path
         inkscape:connector-curvature="0"
         d="m -150.29268,446.43522 0.29375,1.32701 c 0.0931,0.0844 0.26399,0.19421 0.45442,0.19421 0.14768,0 0.20935,-0.0779 0.15418,-0.32512 l -0.26616,-1.1961 0.43981,0 0.2786,1.25939 c 0.0823,0.37382 -0.04,0.6151 -0.40789,0.6151 -0.21531,0 -0.43116,-0.12064 -0.61671,-0.23263 l 0.0444,0.19639 -0.40358,0 -0.40789,-1.83825 0.43711,0 z"
         style="fill:#000000;fill-opacity:1;fill-rule:evenodd;stroke:none"
         id="path868-4" /><path
         inkscape:connector-curvature="0"
         d="m -146.47608,447.28455 0.04,0.1796 c 0.0974,0.44198 -0.0801,0.84934 -0.56208,0.84556 -0.49878,0 -0.88125,-0.3722 -1.01217,-0.95537 -0.12659,-0.58318 0.0887,-0.95321 0.56641,-0.95321 0.35488,0 0.62752,0.11198 0.85366,0.37436 l -0.27266,0.19854 c -0.13957,-0.12876 -0.25372,-0.21964 -0.45874,-0.21964 -0.20503,0 -0.3419,0.14769 -0.26617,0.53016 l 1.11171,0 z m -1.04408,0.29592 c 0.0633,0.25588 0.23044,0.40356 0.44413,0.40356 0.21099,0 0.31268,-0.14768 0.26184,-0.40356 l -0.70597,0 z"
         style="fill:#000000;fill-opacity:1;fill-rule:evenodd;stroke:none"
         id="path870-5" /><path
         inkscape:connector-curvature="0"
         d="m -145.38548,448.27347 -0.0806,-0.35272 0.25588,0 -0.24289,-1.09495 c -0.0573,-0.264 0.0335,-0.42467 0.35921,-0.42467 0.12009,0 0.22775,0.013 0.35272,0.0276 l 0.0778,0.36138 c -0.0654,-0.0146 -0.1412,-0.0357 -0.20882,-0.0357 -0.10766,0 -0.15202,0.027 -0.13091,0.12659 l 0.23207,1.03976 0.35921,0 0.0785,0.35272 -0.35922,0 0.13308,0.60859 -0.43765,0 -0.13524,-0.60859 -0.25318,0 z"
         style="fill:#000000;fill-opacity:1;fill-rule:nonzero;stroke:none"
         id="path872-0" /><path
         inkscape:connector-curvature="0"
         d="m -143.50071,447.92075 0.81363,0 -1.14741,-1.17501 -0.0698,-0.31052 1.44333,0 0.0779,0.35488 -0.88938,0 1.14309,1.17284 0.0676,0.31053 -1.3611,0 -0.0779,-0.35272 z"
         style="fill:#000000;fill-opacity:1;fill-rule:nonzero;stroke:none"
         id="path874-3" /></g></g></svg>